<?xml version="1.0" encoding="UTF-8"?>
<!DOCTYPE svg PUBLIC "-//W3C//DTD SVG 1.1//EN"
    "http://www.w3.org/Graphics/SVG/1.1/DTD/svg11.dtd"><svg xmlns="http://www.w3.org/2000/svg" height="480.6344" stroke-opacity="1" viewBox="0 0 600 481" font-size="1" width="600.0000" xmlns:xlink="http://www.w3.org/1999/xlink" stroke="rgb(0,0,0)" version="1.1"><defs></defs><g stroke-linejoin="miter" stroke-opacity="1.0" fill-opacity="1.0" font-size="2.148043369370906px" opacity="1.0" stroke="rgb(0,0,0)" stroke-width="3.7019742820099135" fill="rgb(0,0,0)" stroke-linecap="butt" stroke-miterlimit="4.0"><path d="M 118.9349,-0.7483 ZM 111.1223,473.1606 c -44.2844,-39.5772 -81.6873,-72.9224 -111.1223 -114.3397c 0.0000,-1.8170 2.6085,-8.4857 5.7966 -14.8195c 18.1030,-35.9646 34.2628,-59.2833 74.6823 -107.7672l 21.6035,-25.9138 l -1.0756,-11.0202 c -5.8875,-70.0383 -2.4333,-121.9586 14.9210 -188.4237c 2.1773,-20.0515 6.9995,-9.7190 32.7151 9.4934c 29.1594,23.5070 56.2496,36.9923 83.6251 81.2677l 34.2050,1.4886 c 38.9053,1.6932 54.6896,4.2197 76.8851 11.3294l 16.6589,5.3363 c 0.1749,21.8285 0.3499,43.6570 0.5249 65.4855c 0.1507,18.8053 0.3015,37.6106 0.4522 56.4159c -19.4379,19.4664 -39.9572,42.7179 -59.3951 62.1843c 26.0260,42.3578 96.4532,65.9851 157.7551 72.1923l 25.2977,2.2738 l 17.7115,20.8003 c 19.9600,23.4409 32.2119,34.0039 66.8152 57.6047l 24.0628,16.4118 c 2.4774,1.3664 15.3813,9.0434 -2.7765 7.1856l -35.6315,-6.8254 c -48.7183,-9.3323 -71.2385,-12.3205 -93.0121 -12.3418c -17.3696,-0.0167 -51.7639,2.2835 -68.5379 4.5841c -7.1702,0.9834 -8.1610,0.4326 -25.9138 -14.4073c -55.2644,-46.1965 -73.8008,-59.5240 -108.2930 -77.8621l -19.4969,-10.3657 c -38.5212,38.5357 -77.0424,77.0715 -115.5636 115.6072c -4.0965,5.7911 -12.8938,-5.5747 -12.8938 -5.5747ZM 118.9349,-0.7483 ZM 233.3332,360.1191 c -20.8659,-11.0502 -39.6161,-21.6604 -63.8561 -36.3012l -12.5030,11.9913 c -6.5468,6.2789 -19.5017,15.3703 -26.8096 22.6157c -11.6871,11.5872 -14.6957,16.1122 -24.9860 37.5780c -10.6787,22.2762 -16.3451,29.6238 -16.3225 21.1652c 0.0148,-5.5631 21.2638,-47.1929 29.1447 -57.0988c 4.1288,-5.1897 16.4316,-15.7976 27.0280 -23.9834l 19.8815,-15.3587 c -7.7879,-7.0766 -14.8156,-13.4685 -20.9887 -20.3253c -2.3136,-1.0234 -31.5336,22.7068 -41.8241 33.9662c -5.2898,5.7878 -16.0006,20.8509 -23.8019 33.4734c -13.0341,21.0893 -19.0639,27.4384 -19.0639 20.0734c 0.0000,-3.7612 22.2031,-39.3207 33.5818 -53.7831c 4.8944,-6.2208 15.7026,-16.6326 24.0182 -23.1373c 8.3156,-6.5047 21.1813,-15.4839 23.2942 -17.1497c -18.5297,-30.7689 -24.3494,-50.3450 -35.7226 -75.6359l -25.9246,31.5961 c -34.0720,41.5259 -44.0587,55.6482 -59.7774 84.5315l -13.0953,24.0628 c 11.1041,9.1273 76.5801,89.1200 114.7086 113.8357c 40.3814,-38.9637 70.3658,-69.4457 113.0188 -112.1160ZM 118.9349,-0.7483 ZM 105.5063,448.1522 c 19.4520,-30.3454 61.9063,-89.3237 88.2337 -105.4863c -17.0192,28.4744 -55.6547,61.2695 -76.3440 97.7194c -3.3009,5.8769 -6.6744,9.6348 -8.6504 9.6360c -1.7816,0.0010 -3.2392,-0.8401 -3.2392 -1.8691ZM 118.9349,-0.7483 ZM 35.1688,364.7291 c 0.0000,-3.7548 20.7406,-42.5577 27.6940 -51.8118c 11.6923,-14.5629 61.6928,-65.1354 63.3617 -50.0586c -30.8251,19.3960 -67.1308,59.6605 -79.7508 92.3014c -3.2087,6.3943 -7.0351,11.5687 -8.5551 11.5687c -1.5124,0.0000 -2.7498,-0.8999 -2.7498 -1.9997ZM 118.9349,-0.7483 ZM 555.7096,456.0263 c -30.6013,-21.3810 -49.0185,-38.6485 -70.1591 -65.7795c -3.9329,-5.0473 -4.8494,-5.2580 -37.9426 -8.7244c -76.4401,-6.8099 -147.5751,-47.0400 -167.2539 -105.4921c -35.9432,-89.6453 -14.8717,-156.6810 -98.0319 -223.7526c -7.1263,-5.8581 -23.4861,-17.8756 -36.3551 -26.7057l -23.3981,-16.0546 c -21.4806,75.4708 -24.4517,153.4420 -10.7935 205.7270c 9.1597,35.0644 25.7510,69.5108 51.1640 91.7739c 37.2424,32.6264 138.5745,67.9909 224.8423 152.3363l 10.1804,-0.9512 c 64.8667,-6.0606 84.5385,-5.3132 140.6750 5.3445c 17.8158,3.3824 33.5689,6.2592 35.0070 6.3929c 1.4381,0.1336 -6.6325,-6.2179 -17.9346 -14.1147ZM 118.9349,-0.7483 ZM 448.8644,423.4700 c -117.3607,-47.3546 -149.4478,-62.4448 -181.7283 -94.8817c -42.6895,-50.2379 -67.0628,-105.6115 -91.4917 -166.4146c -12.3331,-46.0267 8.8369,5.3586 15.3288 21.7968c 15.2329,38.0441 32.4152,64.5320 45.5866 88.8344c 37.0822,68.4205 87.2336,94.4927 232.2027 151.2665c 24.0664,9.4251 38.4080,16.2509 38.4080 17.8466c 0.0000,1.4038 -1.4577,2.5325 -3.2392 2.5083c -1.7816,-0.0242 -26.5617,-9.4545 -55.0669 -20.9563ZM 118.9349,-0.7483 ZM 127.2023,158.0186 c -1.1625,-9.0853 -4.3730,-74.1595 8.1402 -76.8775c 2.8052,-0.4687 5.8353,3.8273 8.6899 9.9388c 5.5090,11.7944 10.3647,30.3506 11.6893 34.4732l 3.8921,15.8766 c -13.8484,9.1233 -24.2859,21.8743 -28.2626 21.3442c -2.1747,0.2440 -3.4244,-1.3837 -4.1490 -4.7554ZM 118.9349,-0.7483 ZM 131.6894,154.9239 c 7.3598,-7.1631 18.6433,-12.9490 22.6894 -16.5658c -8.7718,-37.3097 -15.2820,-51.6854 -18.4009 -50.0822c -5.0396,18.5356 -5.4666,41.9333 -4.2885 66.6481ZM 118.9349,-0.7483 ZM 160.8860,71.3259 c 5.1320,-4.5967 49.8486,36.6924 49.8486 41.5965c 0.0000,1.0072 -8.1199,5.7195 -17.0856 9.8877c -6.5364,3.0388 -15.8408,7.4376 -17.3626 7.4376c -4.4661,-4.1909 -17.5342,-56.2840 -15.4003 -58.9218ZM 118.9349,-0.7483 ZM 166.9956,79.1810 c -3.5016,-2.4453 6.4981,33.4533 10.5810 44.9191c 14.8330,-4.2265 26.5675,-12.9564 26.3830 -13.5349c -9.1625,-9.6091 -30.3775,-28.4464 -36.9641 -31.3842ZM 118.9349,-0.7483 ZM 283.3586,242.7127 c -4.6150,0.0000 -1.3362,-5.6307 9.0446 -15.5324c 4.2175,-4.0229 7.9321,-7.1952 11.5577 -9.6878c 9.2486,-6.3583 17.9181,-8.2932 32.8808 -8.6386l 16.6590,-0.3846 c -0.1137,-7.6655 0.6457,-18.1826 -1.4035 -24.3160c -0.7927,0.4899 -10.2562,-2.6078 -16.8443 -4.0199c -19.4470,-4.1684 -24.9386,-2.2219 -40.0970 5.0426c -14.5055,6.9516 -17.5079,8.9582 -17.5079 5.1540c 0.0000,-1.3232 6.7646,-5.6962 15.0324 -9.7177c 13.6012,-6.6157 16.2887,-7.2807 28.2275 -6.9849c 7.2573,0.1797 17.4597,1.9985 22.9128 2.9681l 10.7991,1.9202 c 0.1385,-2.2162 0.3764,-6.2485 0.5649 -10.5282c 0.2905,-6.5977 0.4632,-13.7834 -0.0291 -15.8102c -15.6586,-7.3024 -33.9397,-13.2624 -48.3988 -13.4775c -15.3673,-0.2286 -29.3091,0.0589 -40.6798 4.7549c -5.0573,2.0886 -7.8836,5.5592 -11.8229 9.7345c 6.4372,26.8219 22.6510,126.2118 43.5948 145.4551c 18.3228,-18.2923 37.3667,-40.3697 55.6895 -58.6620c 3.5691,-12.5585 1.2008,-25.6356 -0.8849 -25.9856c -36.1922,-8.2965 -58.2230,15.6994 -69.2950 28.7158ZM 118.9349,-0.7483 ZM 353.5385,124.8369 l -9.9668,-3.5246 l -18.5587,-6.5629 c -8.7300,-3.0872 -17.0633,-4.5950 -26.1962 -5.5314c -10.6000,-1.0868 -22.2772,-1.4038 -36.9021 -2.5267c -8.1443,-0.6253 -24.7871,-0.8052 -27.0705 -1.2808c 2.3132,4.8762 5.1087,10.2976 7.8129 15.8878c 4.1508,8.5807 8.0866,17.5591 9.7332 25.5735c 12.7960,-8.6873 24.9171,-11.1887 36.4899 -12.1761c 13.6835,-1.2174 29.8661,1.6343 42.4896 4.7092c 10.8672,2.6471 19.0969,5.4596 20.8239 5.9838c 2.1043,0.6388 2.3965,-2.2617 2.1857 -6.5715c -0.1963,-4.0116 -0.8284,-9.2442 -0.8408 -13.9803ZM 118.9349,-0.7483 ZM 376.9475,336.8598 c -5.3731,-1.3833 -12.7981,-5.8245 -19.0673 -11.2354c -3.5487,-3.0628 -6.7270,-6.4363 -8.9532 -9.7418c -1.8873,-2.8022 -3.0903,-5.5555 -3.2547 -8.0292c -0.5052,-5.9566 7.8318,7.3379 13.8322 13.4503c 1.9762,2.1086 4.6963,3.9841 7.6249 5.7136c 5.7019,3.3674 12.1941,6.1812 15.5239 9.0841c -0.1277,1.3588 -2.1425,2.2919 -5.7057 0.7584ZM 118.9349,-0.7483 ZM 374.0274,302.5504 c -1.9692,-1.2009 -3.5821,-2.0414 -5.2453 -4.2337c -1.9761,-2.6048 -3.6633,-5.6786 -4.8885 -8.6730c -2.6906,-6.5756 -4.4280,-12.5129 -0.8300 -12.5129c 0.8927,0.0000 2.3986,3.6847 3.8028 7.3100c 0.9566,2.4697 1.8661,4.9118 2.5025 6.1424c 1.5705,3.0369 5.3401,6.8065 8.3770 8.3770c 1.4348,7.2782 -2.4718,4.3749 -3.7184 3.5903ZM 118.9349,-0.7483 Z"/></g></svg>